# xmcd
#
# Track frame offsets: 
#        183
#        20515
#        43455
#        69555
#        90255
#        115033
#        146060
#        195045
#
# Disc length: 3174 seconds
#
# Revision: 3
# Processed by: cddbd v1.5.2PL0 Copyright (c) Steve Scherf et al.
# Submitted via: ExactAudioCopy v1.1
#
DISCID=640c6408
DTITLE=Black Box - 2 and 2 - The Remixes - CD2
DYEAR=1990
DGENRE=House
TTITLE0=Bright On Time (The Come Back Mix)
TTITLE1=Everybody Everybody (Freak Remix)
TTITLE2=Fantasy (Psyche Remix)
TTITLE3=Get Down (Radio Remix)
TTITLE4=Ride On Time (Garage Trip)
TTITLE5=I Don't Know Anybody Else (Remix)
TTITLE6=Black Box Megamix (Hot Club Version)
TTITLE7=Black Box The U.K. Megamix
EXTD=
EXTT0=
EXTT1=
EXTT2=
EXTT3=
EXTT4=
EXTT5=
EXTT6=
EXTT7=
PLAYORDER=
